<?xml version="1.0" encoding="utf-8"?>
<!-- Generator: Adobe Illustrator 25.4.1, SVG Export Plug-In . SVG Version: 6.00 Build 0)  -->
<svg version="1.1" id="Livello_1" xmlns="http://www.w3.org/2000/svg" xmlns:xlink="http://www.w3.org/1999/xlink" x="0px" y="0px"
	 viewBox="0 0 291.7 261.2" style="enable-background:new 0 0 291.7 261.2;" xml:space="preserve">
<style type="text/css">
	.st0{fill:#3233FF;}
</style>
<path class="st0" d="M80.9,229.1c-8.3,5.1-17.4,9.4-28,13.2c-6.6,2.4-13.4,4.5-20,6.5c-8.5,2.6-17.2,5.3-25.7,8.6
	c-0.6,0.2-2.4,0.9-2.9,0.8c-0.3-0.1-0.9-0.9-1.4-1.6v-1.5l3.4-6.4c2.7-5.1,5.4-10.1,8.1-15.1c6.9-12.9,13.9-25.9,20.8-38.8l8.7-16.1
	c0.2-0.3,0.4-0.7,0.5-1c1.4-2.4,2.8-1.9,3.3-1.8c0.4,0.1,0.8,0.4,0.9,0.5c0.7,0.7,0.6,2.3,0.6,2.7c-0.4,5.1-2.3,20.6-0.5,30.2
	c0.3,1.8,1,4.4,2.4,7.5c0.9-0.9,2.1-2.3,3.4-4c1-1.4,4.5-6,6.5-12c2.9-8.8,2.2-19,4.3-23.9c0.3-0.6,0.9-2.1,2.3-3.1
	c0.8-0.5,1.7-0.8,2.7-0.9c2.8-0.2,5.5,0.8,8.8,3.3c6.8,5.1,13.4,10.9,19.9,16.5c1.7,1.5,3.4,3,5.1,4.5l0.8,0.7
	c7.5,6.5,15.3,13.2,23.9,18.4c3.5,2.2,7.3,4.3,11.9,4.3c0,0,0,0,0,0c4.3,0,7.3-2.6,8.5-7.3c1-3.9,0.7-7.7,0.4-10.3
	c-1.6-13.3-5.8-25.8-10.1-37.3c-4.6-12.4-10.7-24.1-16.5-35.3c-1.1-2-2.1-4.1-3.2-6.1c-8.1-15.9-16.3-33.3-20.9-52.9
	c-3.2-13.4-3-24.3,0.5-34.4c4.3-12.3,12-17.6,23-15.8c10,1.6,19.8,5.9,30.9,13.3c11.6,7.8,22.1,18.5,33.9,34.5
	c9.4,12.7,18.7,25,29.6,35.3c3.8,3.6,8.3,7.6,13.8,9.6c6.8,2.5,11.9-0.6,14.2-8.4c0.3-0.9,0.5-1.8,0.6-2.8
	c1.3-7.2,1.2-14.8-0.3-23.8c-2.8-16.7-9.3-31.6-15.3-44c-3.6-7.4-7.4-14.8-11.1-21.9c-1.5-2.9-3-5.7-4.4-8.6c-0.3-0.6-0.4-0.8-0.4-1
	c0,0,0,0,0,0c0.2-0.3,0.2-0.3,0.4-0.2c0,0.1,0.3,0.5,0.5,0.7c0.1,0.2,0.2,0.3,0.3,0.4C231.7,28.3,243,54.8,249,83
	c2,9.4,1.5,18.6-1.5,27.2c-3.4,9.9-9.6,13.2-18.4,10c-6.4-2.4-12.4-6.4-18.3-12.3c-8.7-8.7-16-19.5-23-29.8l-1.7-2.5
	c-0.7-1-1.3-2-2-2.9c-3.7-5.5-7.6-11.3-12.2-16.2c-11.6-12.5-25.1-20.8-36.8-27.3c-3.7-2.1-7.8-3.1-12.1-3.2
	c-8.2-0.1-14.4,4.2-18.1,12.5c-3.5,7.9-4.2,16.8-2.3,28.1c2,11.6,6.2,22.3,10.4,32.1c4.8,11.2,10.5,22.1,15.9,32.6
	c1.9,3.6,3.7,7.2,5.6,10.8c8,15.7,13.9,30.7,18.1,45.9c2.1,7.7,4,16,3.3,24.8c-0.6,7.3-4,11.7-10.2,13.2c-5.3,1.3-10.7,0.3-17.3-3.1
	c-8.4-4.3-15.5-10.5-23.3-17.6c-2.4-2.2-4.8-4.4-7.1-6.6c-5.4-5.1-11-10.3-17-14.9c-2.2-1.7-4.7-3.5-7.4-4.7c-0.6-0.2-2.3-1-4,0.1
	c-1.1,0.7-1.7,2-2,3.7c-0.1,0.8-0.2,1.5-0.4,2.3c-0.2,1.1-0.4,2.2-0.5,3.4c-1.3,12.4-4.1,18.1-4.1,18.1c-1.2,3.1-3.6,7.9-8.6,12.7
	c1.7,1.9,3.2,2.4,4.1,2.6c0.6,0.1,1.2,0.1,2.5,0.2c1.7,0,3-0.1,3.2-0.1c5.2,0,10.6,0.4,16,1.3c2.6,0.4,2.7,1.1,2.9,2.3
	C83,226.8,82.8,228,80.9,229.1z M51.7,223.9c-2.7-2.1-3.9-5.1-5.1-8c-2.5-6.2-2.4-11.8-2.2-19.3c0.1-3.8,0.5-9,1.6-15.1
	c-11.8,23.1-23.6,46.3-35.4,69.4c5.8-1.8,11.7-3.7,17.7-5.7c17.4-5.8,34-12.1,49.7-18.6c-2.5-0.1-6.2-0.2-10.9-0.3
	C57.3,226.1,54.7,226.2,51.7,223.9z"/>
</svg>
