<?xml version="1.0" encoding="utf-8"?>
<!-- Generator: Adobe Illustrator 25.4.1, SVG Export Plug-In . SVG Version: 6.00 Build 0)  -->
<svg version="1.1" id="Livello_1" xmlns="http://www.w3.org/2000/svg" xmlns:xlink="http://www.w3.org/1999/xlink" x="0px" y="0px"
	 viewBox="0 0 155 155" style="enable-background:new 0 0 155 155;" xml:space="preserve">
<style type="text/css">
	.st0{fill:#000000;}
</style>
<g>
	<path class="st0" d="M0.3,100.9C1.2,96.6,4,93.6,7,90.6c12.8-12.7,25.5-25.4,38.2-38.1c1-1,1.4-0.9,2.3,0
		C66,71,84.4,89.4,103,107.8c1,1,1,1.5,0,2.4c-11.5,11.4-22.9,22.8-34.4,34.3c-0.4,0.4-0.9,0.7-1.1,1.3c0.5,0.3,1.1,0.1,1.6,0.1
		c21.9,0,43.8,0,65.7,0c1.4,0,1.8,0.3,1.7,1.7c-0.1,2.1-0.1,4.2,0,6.3c0,0.8-0.2,1.1-1,1c-0.3,0-0.6,0-0.9,0c-27,0-54,0-81,0
		c-4.6,0-8.5-1.5-11.8-4.9c-11.6-11.7-23.3-23.4-35.1-35c-3-3-5.7-6-6.5-10.3C0.3,103.5,0.3,102.2,0.3,100.9z"/>
	<path class="st0" d="M155.3,54.4c-0.9,4.4-3.7,7.4-6.8,10.4C136.2,77,124,89.2,111.7,101.5c-0.9,0.9-1.4,1-2.3,0
		c-18.5-18.5-37-37-55.5-55.4c-1-0.9-0.9-1.4,0-2.3C67,30.8,80,17.8,93,4.7c2.3-2.3,5-3.6,8.1-4.4c1.3,0,2.6,0,3.9,0
		c4.3,0.8,7.3,3.5,10.3,6.4c11.1,11.2,22.3,22.4,33.5,33.5c3,2.9,5.6,6,6.5,10.2C155.3,51.8,155.3,53.1,155.3,54.4z M104.3,19.2
		c-0.2,0.2-0.4,0.4-0.6,0.6c-1.6,1.6-3.3,3.3-4.9,4.9c-0.6,0.6-0.6,0.9,0,1.5c10.2,10.2,20.4,20.3,30.6,30.5c0.6,0.6,0.9,0.7,1.5,0
		c1.5-1.6,3.1-3.2,4.7-4.7c0.8-0.8,0.8-1.2,0-2c-5.2-5.1-10.4-10.3-15.5-15.4c-4.9-4.9-9.8-9.7-14.6-14.6
		C105.1,19.7,104.9,19.3,104.3,19.2z"/>
</g>
</svg>
