<?xml version="1.0" encoding="utf-8"?>
<!-- Generator: Adobe Illustrator 25.4.1, SVG Export Plug-In . SVG Version: 6.00 Build 0)  -->
<svg version="1.1" id="Livello_1" xmlns="http://www.w3.org/2000/svg" xmlns:xlink="http://www.w3.org/1999/xlink" x="0px" y="0px"
	 viewBox="0 0 155 93.6" style="enable-background:new 0 0 155 93.6;" xml:space="preserve">
<style type="text/css">
	.st0{fill:#ffffff;}
</style>
<g>
	<path class="st0" d="M43.7,0c2.2,0,4.5,0,6.7,0c0.7,0.2,1.5,0.4,2.2,0.5c8.8,1,16.8,4,23.8,9.5c0.9,0.7,1.5,0.7,2.4,0
		c6.4-5,13.8-8,21.8-9.2c1.4-0.2,2.8-0.5,4.2-0.7c2.2,0,4.5,0,6.7,0c1.5,0.3,3,0.5,4.5,0.8c19.4,2.9,34.2,17,38.1,36.3
		c0.4,1.8,0.6,3.6,0.9,5.4c0,2.9,0,5.8,0,8.6c-0.2,1-0.3,2-0.5,2.9c-3.2,18.8-13.7,31.5-32,37.5c-3.3,1.1-6.9,1.4-10.3,2.1
		c-2.7,0-5.4,0-8.2,0c-0.4-0.1-0.7-0.2-1.1-0.2c-9.1-0.9-17.3-4.1-24.5-9.8c-0.7-0.6-1.2-0.6-1.9,0c-5.6,4.5-11.9,7.4-18.9,8.9
		c-2.2,0.5-4.4,0.7-6.6,1.1c-2.7,0-5.4,0-8.2,0c-1-0.1-2-0.3-3-0.4C19.4,90.5,3.5,74.8,0.7,54.3c-0.3-2.2-0.5-4.5-0.7-6.8
		c0-0.6,0-1.1,0-1.7c0.1-1.5,0.3-3,0.4-4.5C2.7,19.9,18.3,3.8,39.6,0.7C40.9,0.5,42.3,0.2,43.7,0z M77.6,72.3c0.4,0.4,0.8,0.7,1.1,1
		c1.4,1.3,2.8,2.8,4.3,4c10.1,7.9,21.5,10.2,33.9,7.7c11.7-2.3,20.5-8.8,26-19.4c3.9-7.5,5-15.5,4.1-23.9c-1.1-10-5.3-18.5-13.1-25
		c-9.6-7.9-20.7-10.2-32.8-8.4c-8.8,1.3-16.3,5.4-22.5,11.9c-1.1,1.2-1.1,1.1-2.3,0c-1.9-1.7-3.6-3.5-5.7-5c-9.3-6.7-19.8-8.7-31-7
		c-8.3,1.3-15.5,4.8-21.4,10.9c-7,7.3-10.3,16.1-10.6,26.2c-0.3,11,3,20.7,10.6,28.7c6.8,7.1,15.3,10.9,25.1,11.6
		c11.6,0.9,22-2.3,30.7-10.3C75.4,74.4,76.5,73.4,77.6,72.3z"/>
	<path class="st0" d="M24.7,46.8c0.2-6.1,1.6-11.7,5.6-16.4c3.9-4.6,9-7,15-7.4c6.8-0.4,12.8,1.4,17.7,6.4c3.4,3.5,5.1,7.8,5.8,12.5
		c0.9,6,0.4,11.9-2.5,17.4c-4.1,8-13,12.5-21.8,11.3c-9.7-1.3-16.7-7.6-18.8-16.9C25.2,51.5,25,49.2,24.7,46.8z M32.5,46.7
		c0.2,1.7,0.3,3.5,0.7,5.2C34.7,58.5,40,63,46.5,63.1c6.9,0.1,12.2-3.8,14.1-10.4c1.2-4.2,1.1-8.4-0.2-12.5
		c-1.8-5.5-5.6-8.7-11.4-9.4C42.9,30,37.9,32,34.7,37.5C33.1,40.3,32.6,43.5,32.5,46.7z"/>
	<path class="st0" d="M108.3,23c11.8,0,20.4,7.8,21.8,19.5c0.7,5.6,0.3,11-2.2,16.2c-3.9,8.2-12.2,12.8-21.4,12.1
		c-9.1-0.7-16.5-6.6-19.1-15.3c-2-6.9-1.9-13.7,1.1-20.3C92.1,27.4,99.4,23,108.3,23z M122.6,47.1c0-3.1-0.4-5.7-1.4-8.2
		c-2.4-5.6-6.8-8.2-12.7-8.4c-5.6-0.1-10.1,2.1-12.7,7.2C93.1,43.4,93,49.3,95.6,55c4.1,9.1,16.4,10.9,23.2,3.6
		C121.8,55.2,122.6,51.1,122.6,47.1z"/>
</g>
</svg>
