<?xml version="1.0" encoding="utf-8"?>
<!-- Generator: Adobe Illustrator 25.4.1, SVG Export Plug-In . SVG Version: 6.00 Build 0)  -->
<svg version="1.1" id="Livello_1" xmlns="http://www.w3.org/2000/svg" xmlns:xlink="http://www.w3.org/1999/xlink" x="0px" y="0px"
	 viewBox="0 0 264.6 293.2" style="enable-background:new 0 0 264.6 293.2;" xml:space="preserve">
<g>
	<path d="M42.9,293.2c-5.1-1.5-10.2-3-14.6-6.1c-10.7-7.4-17.8-17.6-23.8-28.8c-1.3-2.4-2.4-5-3.6-7.4c-1.4-2.8-1.1-5,1-6
		c2.8-1.5,3.9,0.6,5.1,2.6c6.2,10.7,13.5,20.4,23.6,27.7c6.7,4.9,14.1,8.1,22.7,6.2c6.6-1.5,11.4-5.6,15.4-10.7
		c1.5-1.8,3.8-3.9,3.8-5.8c-0.1-1.9-3.5-2.4-5.4-3.6C49.5,249.2,36.1,234,28,214.3c-1.5-3.7-2.1-7.5-1.7-11.5
		c0.7-7.3,5.9-12.7,14.5-15.1c10.9-3,21-0.3,30.4,5.3c10.6,6.3,18.7,14.8,21.4,27.3c2.6,12.2,1.5,24.3-2.5,36.1
		c-0.9,2.6-0.5,3.5,2.2,4.2c11.8,3.4,23.8,5,35.9,2.3c20.6-4.4,32.3-18.4,33.9-39.4c1.5-18.9-4.1-36-12.9-52.3
		c-2.4-4.5-2.5-4.4-6.5-1.6c-18.1,12.8-36.7,13.3-55.8,2.3c-15.3-8.9-26.5-21.2-31.6-38.3c-5.4-18.2,3.2-29.5,21.7-32.5
		c16.1-2.6,29.6,3.6,41.7,13.4c11.1,9,19.8,20.1,27.6,31.9c2,3,2,3,4.4,0.5c10.6-11.2,18.7-24.4,26.6-37.5
		c10.9-18.2,20.5-37,30.6-55.6c0.7-1.3,1-2.3-0.3-3.5c-1.6-1.6-1.7-4.2-3.8-5.5c-0.9-0.6-1.7-1.1-2.8-0.8c-3,0.7-4.9-0.8-6.2-3.4
		c-1.3-2.6-0.8-5.1,1.4-7.3c4-3.8,8.6-6.7,13.4-9.2c14.7-7.5,28.9-15.9,43.9-22.8c1-0.4,1.9-0.9,2.9-1.2c5.1-1.6,9.2,1.8,8.3,7.1
		c-1.9,11.3-5.4,22-10.6,32.2c-4.6,9-10.1,17.3-16.5,25c-3.2,3.9-6.3,4.3-10.5,1.5c-2.4-1.6-4.8-3.1-7.1-4.9
		c-1.7-1.3-2.4-1.2-3.5,0.8c-5.9,11.8-11.9,23.7-18.1,35.4c-9.3,17.6-19.5,34.6-32.3,49.8c-3.1,3.6-6.3,7.1-9.7,10.5
		c-1.6,1.6-1.9,2.7-0.8,4.8c6.4,11.7,11.9,23.9,15.1,36.9c3.4,14,4.2,27.9-1.2,41.6c-8.3,21.2-27.6,34.5-50.4,35
		c-11.3,0.3-22.2-1.7-32.7-5.8c-2.2-0.9-3.3-0.5-4.6,1.5c-6.4,9.9-15,16.9-26.4,20.2c-1.6,0.5-3.3,0.2-4.7,1.1
		C47.9,293.2,45.4,293.2,42.9,293.2z M113.7,169.9c1.9-0.2,3.8-0.4,5.7-0.7c7.9-1.7,14.1-6.5,20.4-11.2c1.1-0.8,0.8-1.5,0.2-2.4
		c-9.1-13.1-19.3-25.4-32-35.3c-7.7-6-16.4-9.3-26.4-8.1c-8.8,1.1-14.3,7-14.8,15.8c-0.3,4.9,1,9.5,3.5,13.7
		c5.5,9.4,14,15.5,22.8,21.2C99.3,166.9,106,169.8,113.7,169.9z M82.9,230.7c-0.1-6.5-1.3-12.7-5.1-18.2c-7.5-11-19-13.7-31.2-14
		c-6.5-0.2-8.8,3.5-6.8,10c6.1,20.1,18.9,34.9,36.9,45.4c1.3,0.7,1.8,0.5,2.2-0.8C81.4,245.9,83,238.4,82.9,230.7z M248.1,18.5
		C235.2,25.4,222.8,32,211,39.7c4.4,3.8,9.2,6.5,14.2,8.8c1.6,0.7,3.2,1.5,3.7,3.3c0.8,2.4,1.5,1.2,2.3,0.1c3.7-4.9,6.9-10,9.7-15.5
		C243.9,30.9,246.4,25.1,248.1,18.5z"/>
</g>
</svg>
